<?xml version="1.0" encoding="utf-8"?>
<!-- Generator: Adobe Illustrator 23.0.2, SVG Export Plug-In . SVG Version: 6.00 Build 0)  -->
<svg version="1.1" id="Camada_2" xmlns="http://www.w3.org/2000/svg" xmlns:xlink="http://www.w3.org/1999/xlink" x="0px" y="0px"
	 viewBox="0 0 680 152" style="enable-background:new 0 0 680 152;" xml:space="preserve">
<style type="text/css">
	.st0{fill:#FFFFFF;}
</style>
<g>
	<path class="st0" d="M28.8,146.4c-1.1,0-2.2-0.4-3.1-1.1c-1.5-1.2-2.1-3-1.8-4.9l5.8-29.3c-11.6-11.3-18-25.6-18-40.4
		C11.8,36.1,45.9,8,87.8,8s76,28.1,76,62.6c0,34.5-34.1,62.6-76,62.6c-7.4,0-14.7-0.9-21.8-2.6l-35.1,15.3
		C30.2,146.2,29.5,146.4,28.8,146.4z M87.8,14c-38.6,0-70,25.4-70,56.6c0,13.7,6.1,26.9,17.3,37.2c0.8,0.7,1.1,1.8,0.9,2.8
		l-5.8,29.1l34.3-15c0.6-0.3,1.3-0.3,2-0.2c6.9,1.8,14,2.7,21.3,2.7c38.6,0,70-25.4,70-56.6S126.3,14,87.8,14z"/>
</g>
<g>
	<path class="st0" d="M77.3,97c-1.2,0-2.5-0.5-3.4-1.4L45.2,68.4c-0.8-0.8-0.8-2-0.1-2.8l4.1-4.4c0.8-0.8,2-0.8,2.8-0.1l25.2,23.9
		l43.7-42.9c0.8-0.8,2.1-0.8,2.8,0l4.2,4.3c0.8,0.8,0.8,2.1,0,2.8L80.8,95.6C79.8,96.6,78.5,97,77.3,97z"/>
</g>
<g>
	<path class="st0" d="M241.4,102.3l-5.1-14.8h-22.1l-5.1,14.8h-12.1L218,44.4h14.3l21,57.9H241.4z M225.2,53.3l-0.2,0.9
		c-0.3,1-0.6,2.1-1,3.4c-0.4,1.3-2.7,8.2-7.1,20.8h16.6l-5.7-16.6l-1.8-5.6L225.2,53.3z"/>
	<path class="st0" d="M280.9,120.1c-5.4,0-9.8-1-13.1-3.1c-3.3-2.1-5.3-5-6.1-8.9l11.5-1.4c0.4,1.8,1.3,3.2,2.6,4.2
		c1.4,1,3.1,1.5,5.3,1.5c3.2,0,5.5-1,7-3c1.5-2,2.2-4.9,2.2-8.8v-2.3l0.1-4.4h-0.1c-2.5,5.5-7.3,8.2-14.3,8.2c-5.2,0-9.2-1.9-12-5.8
		c-2.8-3.9-4.3-9.4-4.3-16.7c0-7.3,1.5-12.9,4.4-16.8c2.9-3.9,7.2-5.9,12.8-5.9c6.5,0,10.9,2.7,13.4,8h0.2c0-1,0.1-2.3,0.2-3.9
		c0.1-1.6,0.3-2.7,0.4-3.2h10.9c-0.2,3-0.2,6.4-0.2,10.3v32.8c0,6.3-1.8,11.1-5.4,14.3C293,118.5,287.7,120.1,280.9,120.1z
		 M290.6,79.4c0-4.6-0.8-8.1-2.4-10.7c-1.6-2.6-4-3.8-7-3.8c-6.2,0-9.2,4.9-9.2,14.8c0,9.7,3.1,14.5,9.2,14.5c3.1,0,5.4-1.3,7-3.8
		S290.6,84.1,290.6,79.4z"/>
	<path class="st0" d="M332.7,103.1c-6.7,0-11.8-2-15.4-5.9c-3.6-4-5.4-9.7-5.4-17.3c0-7.3,1.8-13,5.5-16.9c3.6-3.9,8.8-5.9,15.5-5.9
		c6.4,0,11.3,2.1,14.6,6.3c3.4,4.2,5.1,10.4,5.1,18.6v0.3h-28.5c0,4.3,0.8,7.6,2.4,9.8s3.9,3.3,6.8,3.3c4.1,0,6.7-1.8,7.7-5.3
		l10.9,0.9C348.8,99.1,342.4,103.1,332.7,103.1z M332.7,64.3c-2.7,0-4.8,0.9-6.3,2.8c-1.5,1.9-2.2,4.5-2.3,7.9h17.3
		c-0.2-3.6-1.1-6.3-2.6-8.1C337.3,65.2,335.3,64.3,332.7,64.3z"/>
	<path class="st0" d="M391,102.3V77.3c0-7.8-2.6-11.7-7.9-11.7c-2.8,0-5,1.2-6.8,3.6c-1.7,2.4-2.6,5.5-2.6,9.2v23.8h-11.5V67.8
		c0-2.4,0-4.3-0.1-5.9c-0.1-1.5-0.1-2.9-0.2-4.1h11c0.1,0.5,0.2,1.9,0.3,4.2c0.1,2.3,0.2,3.8,0.2,4.7h0.2c1.6-3.4,3.5-5.9,5.9-7.4
		c2.4-1.5,5.2-2.3,8.4-2.3c4.7,0,8.3,1.5,10.8,4.4c2.5,2.9,3.8,7.1,3.8,12.7v28.2H391z"/>
	<path class="st0" d="M443.2,102.3c-0.1-0.4-0.2-1.4-0.4-3.1c-0.2-1.7-0.2-3-0.2-4.1h-0.2c-2.5,5.4-7.2,8.1-14.2,8.1
		c-5.2,0-9.2-2-12-6.1s-4.2-9.7-4.2-16.9c0-7.4,1.5-13.1,4.5-17.1c3-4,7.2-6,12.6-6c3.1,0,5.9,0.7,8.2,2c2.3,1.3,4,3.3,5.3,5.9h0.1
		l-0.1-7.3V41.3H454v51.3c0,2.7,0.1,6,0.3,9.7H443.2z M442.7,79.8c0-4.8-0.8-8.5-2.4-11.1c-1.6-2.6-4-3.9-7.1-3.9
		c-3.1,0-5.4,1.3-6.9,3.8s-2.3,6.3-2.3,11.5c0,10.1,3,15.1,9.1,15.1c3,0,5.4-1.3,7.1-4C441.8,88.5,442.7,84.7,442.7,79.8z"/>
	<path class="st0" d="M476.9,103.1c-4.3,0-7.7-1.2-10.1-3.5c-2.4-2.3-3.6-5.6-3.6-9.9c0-4.6,1.5-8.1,4.5-10.5c3-2.4,7.3-3.6,13-3.7
		l9.6-0.2V73c0-2.9-0.5-5.1-1.5-6.5c-1-1.4-2.7-2.1-5-2.1c-2.1,0-3.7,0.5-4.7,1.5c-1,1-1.6,2.6-1.9,4.8l-12-0.6
		c0.7-4.3,2.7-7.6,5.9-9.8c3.2-2.2,7.6-3.3,13.2-3.3c5.6,0,9.9,1.4,13,4.1c3,2.8,4.6,6.7,4.6,11.8v16.2c0,2.5,0.3,4.2,0.8,5.2
		c0.6,0.9,1.5,1.4,2.8,1.4c0.9,0,1.7-0.1,2.5-0.2v6.2c-0.7,0.2-1.3,0.3-1.8,0.5c-0.5,0.1-1.1,0.2-1.6,0.3s-1.1,0.2-1.7,0.2
		c-0.6,0.1-1.3,0.1-2.2,0.1c-2.9,0-5-0.7-6.4-2.1c-1.4-1.4-2.2-3.5-2.5-6.3h-0.2C488.3,100.2,483.4,103.1,476.9,103.1z M490.3,81.7
		l-5.9,0.1c-2.7,0.1-4.6,0.4-5.7,0.9c-1.1,0.5-2,1.2-2.6,2.2c-0.6,1-0.9,2.3-0.9,3.9c0,2.1,0.5,3.7,1.5,4.7c1,1,2.3,1.5,3.9,1.5
		c1.8,0,3.5-0.5,5-1.5c1.5-1,2.7-2.3,3.5-4.1s1.3-3.6,1.3-5.5V81.7z"/>
	<path class="st0" d="M557.3,102.3h-46.5v-8.6l31.3-39.8H514v-9.5h41.7v8.4l-31.3,40h33V102.3z"/>
	<path class="st0" d="M576.8,103.1c-4.3,0-7.7-1.2-10.1-3.5c-2.4-2.3-3.6-5.6-3.6-9.9c0-4.6,1.5-8.1,4.5-10.5c3-2.4,7.3-3.6,13-3.7
		l9.6-0.2V73c0-2.9-0.5-5.1-1.5-6.5c-1-1.4-2.7-2.1-5-2.1c-2.1,0-3.7,0.5-4.7,1.5c-1,1-1.6,2.6-1.9,4.8l-12-0.6
		c0.7-4.3,2.7-7.6,5.9-9.8c3.2-2.2,7.6-3.3,13.2-3.3c5.6,0,9.9,1.4,13,4.1c3,2.8,4.6,6.7,4.6,11.8v16.2c0,2.5,0.3,4.2,0.8,5.2
		c0.6,0.9,1.5,1.4,2.8,1.4c0.9,0,1.7-0.1,2.5-0.2v6.2c-0.7,0.2-1.3,0.3-1.8,0.5c-0.5,0.1-1.1,0.2-1.6,0.3s-1.1,0.2-1.7,0.2
		c-0.6,0.1-1.3,0.1-2.2,0.1c-2.9,0-5-0.7-6.4-2.1c-1.4-1.4-2.2-3.5-2.5-6.3h-0.2C588.1,100.2,583.3,103.1,576.8,103.1z M590.2,81.7
		l-5.9,0.1c-2.7,0.1-4.6,0.4-5.7,0.9c-1.1,0.5-2,1.2-2.6,2.2c-0.6,1-0.9,2.3-0.9,3.9c0,2.1,0.5,3.7,1.5,4.7c1,1,2.3,1.5,3.9,1.5
		c1.8,0,3.5-0.5,5-1.5c1.5-1,2.7-2.3,3.5-4.1s1.3-3.6,1.3-5.5V81.7z"/>
	<path class="st0" d="M656.2,79.8c0,7.4-1.5,13.2-4.5,17.2c-3,4-7.2,6.1-12.6,6.1c-3.1,0-5.8-0.7-8.2-2s-4.1-3.3-5.3-5.9h-0.2
		c0.2,0.8,0.2,3.3,0.2,7.5v17h-11.5V68c0-4.2-0.1-7.6-0.3-10.2H625c0.1,0.5,0.3,1.5,0.3,2.9c0.1,1.5,0.1,2.9,0.1,4.3h0.2
		c2.6-5.4,7.3-8.2,14.2-8.2c5.2,0,9.2,2,12,6C654.8,66.8,656.2,72.5,656.2,79.8z M644.1,79.8c0-10-3.1-15-9.2-15c-3.1,0-5.4,1.3-7,4
		c-1.6,2.7-2.4,6.4-2.4,11.3c0,4.8,0.8,8.5,2.4,11.1c1.6,2.6,3.9,3.9,7,3.9C641.1,95.2,644.1,90.1,644.1,79.8z"/>
</g>
</svg>
