<?xml version="1.0" encoding="utf-8"?>
<!-- Generator: Adobe Illustrator 23.0.2, SVG Export Plug-In . SVG Version: 6.00 Build 0)  -->
<svg version="1.1" id="Capa_1" xmlns="http://www.w3.org/2000/svg" xmlns:xlink="http://www.w3.org/1999/xlink" x="0px" y="0px"
	 viewBox="0 0 90 90" style="enable-background:new 0 0 90 90;" xml:space="preserve">
<style type="text/css">
	.st0{fill:url(#SVGID_1_);}
</style>
<g>
	<g>
		<linearGradient id="SVGID_1_" gradientUnits="userSpaceOnUse" x1="1.2474" y1="53.7021" x2="88.8442" y2="42.2916">
			<stop  offset="0" style="stop-color:#0EB170"/>
			<stop  offset="1" style="stop-color:#05E6A1"/>
		</linearGradient>
		<path class="st0" d="M89.3,0.7c-0.3-0.3-0.8-0.5-1.2-0.5l-43.2,0c-1,0-1.8,0.8-1.8,1.8v5l-16.6,4.5c-0.9,0.3-1.5,1.2-1.2,2.2
			l8.6,32.3l-7.5,7.5c-0.9-1.4-2.5-2.3-4.3-2.3H5.3C2.4,51,0,53.4,0,56.3V85c0,2.9,2.4,5.3,5.3,5.3h16.8c2.5,0,4.5-1.7,5.1-4
			l2.1,1.8c1.6,1.4,3.7,2.2,5.8,2.2h53c1,0,1.8-0.8,1.8-1.8V1.9C89.8,1.4,89.7,1,89.3,0.7z M23.9,85c0,1-0.8,1.8-1.8,1.8H5.3
			c-1,0-1.8-0.8-1.8-1.8V56.3c0-1,0.8-1.8,1.8-1.8h6.7v20.3c0,1,0.8,1.8,1.8,1.8s1.8-0.8,1.8-1.8V54.5h6.7c1,0,1.8,0.8,1.8,1.8
			L23.9,85L23.9,85z M29.1,14.4l14-3.8v6.5L42,17.4c-0.4,0.1-0.8,0.4-1.1,0.8c-0.2,0.4-0.3,0.9-0.2,1.3c0.7,2.5-0.8,5.1-3.3,5.8
			c-0.5,0.1-0.8,0.4-1.1,0.8c-0.2,0.4-0.3,0.9-0.2,1.3L43,52.9h-3.5l-1.8-7.1c-0.1-0.2-0.2-0.4-0.3-0.6L29.1,14.4z M43.2,25.2V40
			L40,28.1C41.3,27.5,42.4,26.4,43.2,25.2z M68.4,86.7H35.1l0,0c-1.3,0-2.5-0.5-3.5-1.3l-4.2-3.7V57.4l7.7-7.7l1.4,5.5
			c0.2,0.8,0.9,1.3,1.7,1.3l34.5,0c1.4,0,2.5,1.1,2.5,2.5c0,1.4-1.1,2.5-2.5,2.5H55c-1,0-1.8,0.8-1.8,1.8s0.8,1.8,1.8,1.8h23.2
			c1.4,0,2.5,1.1,2.5,2.5c0,1.4-1.1,2.5-2.5,2.5H55c-1,0-1.8,0.8-1.8,1.8c0,1,0.8,1.8,1.8,1.8h19.4c1.4,0,2.5,1.1,2.5,2.5
			s-1.1,2.5-2.5,2.5H55c-1,0-1.8,0.8-1.8,1.8c0,1,0.8,1.8,1.8,1.8h13.4c1.4,0,2.5,1.1,2.5,2.5C70.8,85.6,69.7,86.7,68.4,86.7z
			 M86.3,86.7L86.3,86.7H73.8c0.3-0.8,0.5-1.6,0.5-2.5s-0.2-1.7-0.5-2.5h0.6c3.3,0,6-2.7,6-6c0-1-0.2-1.9-0.6-2.7
			c2.5-0.7,4.4-3,4.4-5.8c0-1.3-0.4-2.6-1.2-3.6V41.5c0-1-0.8-1.8-1.8-1.8c-1,0-1.8,0.8-1.8,1.8v20c-0.4-0.1-0.8-0.1-1.3-0.1h-0.1
			c0.3-0.8,0.5-1.6,0.5-2.5c0-3.3-2.7-6-6-6h-2.8c3-1.3,5.1-4.3,5.1-7.7c0-4.6-3.8-8.4-8.4-8.4c-4.6,0-8.4,3.8-8.4,8.4
			c0,3.5,2.1,6.5,5.1,7.7h-9.6V19.5c3.1-0.7,5.6-3.2,6.3-6.3h13.2c0.7,3.1,3.2,5.6,6.3,6.3V25c0,1,0.8,1.8,1.8,1.8
			c1,0,1.8-0.8,1.8-1.8v-7c0-1-0.8-1.8-1.8-1.8c-2.6,0-4.7-2.1-4.7-4.7c0-1-0.8-1.8-1.8-1.8H58.3c-1,0-1.8,0.8-1.8,1.8
			c0,2.6-2.1,4.7-4.7,4.7c-1,0-1.8,0.8-1.8,1.8v35h-3.4V3.7l39.7,0V86.7z M66.5,50.1c-2.7,0-4.9-2.2-4.9-4.9c0-2.7,2.2-4.9,4.9-4.9
			c2.7,0,4.9,2.2,4.9,4.9C71.4,47.9,69.2,50.1,66.5,50.1z"/>
	</g>
</g>
</svg>
