<?xml version="1.0" encoding="utf-8"?>
<!-- Generator: Adobe Illustrator 23.0.2, SVG Export Plug-In . SVG Version: 6.00 Build 0)  -->
<svg version="1.1" id="Capa_1" xmlns="http://www.w3.org/2000/svg" xmlns:xlink="http://www.w3.org/1999/xlink" x="0px" y="0px"
	 viewBox="0 0 90 90" style="enable-background:new 0 0 90 90;" xml:space="preserve">
<style type="text/css">
	.st0{fill:url(#SVGID_1_);}
	.st1{fill:url(#SVGID_2_);}
	.st2{fill:url(#SVGID_3_);}
	.st3{fill:url(#SVGID_4_);}
	.st4{fill:url(#SVGID_5_);}
	.st5{fill:url(#SVGID_6_);}
	.st6{fill:url(#SVGID_7_);}
</style>
<g>
	<linearGradient id="SVGID_1_" gradientUnits="userSpaceOnUse" x1="36.2111" y1="80.6598" x2="39.7264" y2="80.7074">
		<stop  offset="0" style="stop-color:#0EB170"/>
		<stop  offset="1" style="stop-color:#05E6A1"/>
	</linearGradient>
	<circle class="st0" cx="38" cy="80.7" r="1.8"/>
	<linearGradient id="SVGID_2_" gradientUnits="userSpaceOnUse" x1="39.6319" y1="56.0253" x2="50.3675" y2="56.1707">
		<stop  offset="0" style="stop-color:#0EB170"/>
		<stop  offset="1" style="stop-color:#05E6A1"/>
	</linearGradient>
	<path class="st1" d="M41.5,61.3c-1,0-1.8,0.8-1.8,1.8s0.8,1.8,1.8,1.8h7c1,0,1.8-0.8,1.8-1.8s-0.8-1.8-1.8-1.8h-1.8V49
		c0-1-0.8-1.8-1.8-1.8h-3.5c-1,0-1.8,0.8-1.8,1.8s0.8,1.8,1.8,1.8h1.8v10.5H41.5z"/>
	<linearGradient id="SVGID_3_" gradientUnits="userSpaceOnUse" x1="10.9798" y1="70.064" x2="21.7155" y2="70.2094">
		<stop  offset="0" style="stop-color:#0EB170"/>
		<stop  offset="1" style="stop-color:#05E6A1"/>
	</linearGradient>
	<path class="st2" d="M12.8,78.9h7c1,0,1.8-0.8,1.8-1.8s-0.8-1.8-1.8-1.8h-5.3v-3.5h5.3c1,0,1.8-0.8,1.8-1.8v-7c0-1-0.8-1.8-1.8-1.8
		h-7c-1,0-1.8,0.8-1.8,1.8s0.8,1.8,1.8,1.8h5.3v3.5h-5.3c-1,0-1.8,0.8-1.8,1.8v7C11.1,78.1,11.9,78.9,12.8,78.9z"/>
	<linearGradient id="SVGID_4_" gradientUnits="userSpaceOnUse" x1="68.2845" y1="73.5797" x2="79.0202" y2="73.725">
		<stop  offset="0" style="stop-color:#0EB170"/>
		<stop  offset="1" style="stop-color:#05E6A1"/>
	</linearGradient>
	<path class="st3" d="M70.1,78.9c-1,0-1.8,0.8-1.8,1.8s0.8,1.8,1.8,1.8h7c1,0,1.8-0.8,1.8-1.8V66.6c0-1-0.8-1.8-1.8-1.8h-7
		c-1,0-1.8,0.8-1.8,1.8s0.8,1.8,1.8,1.8h5.3v3.5h-5.3c-1,0-1.8,0.8-1.8,1.8s0.8,1.8,1.8,1.8h5.3v3.5H70.1z"/>
	<linearGradient id="SVGID_5_" gradientUnits="userSpaceOnUse" x1="-0.1612" y1="64.4494" x2="90.3057" y2="65.6742">
		<stop  offset="0" style="stop-color:#0EB170"/>
		<stop  offset="1" style="stop-color:#05E6A1"/>
	</linearGradient>
	<path class="st4" d="M88.2,57.8H60.8V41.5c0-1-0.8-1.8-1.8-1.8H30.9c-1,0-1.8,0.8-1.8,1.8v9.3H1.8c-1,0-1.8,0.8-1.8,1.8v35.7
		c0,1,0.8,1.8,1.8,1.8h29.2h28.1h29.2c1,0,1.8-0.8,1.8-1.8V59.6C90,58.6,89.2,57.8,88.2,57.8z M29.2,86.5H3.5V54.3h25.7V86.5z
		 M57.3,86.5H32.7V43.2h24.6V86.5z M86.5,86.5H60.8V61.3h25.7V86.5z"/>
	<linearGradient id="SVGID_6_" gradientUnits="userSpaceOnUse" x1="27.28" y1="17.2553" x2="62.4848" y2="17.732">
		<stop  offset="0" style="stop-color:#0EB170"/>
		<stop  offset="1" style="stop-color:#05E6A1"/>
	</linearGradient>
	<path class="st5" d="M35.1,22.3l-1.7,10.5c-0.1,0.7,0.2,1.3,0.7,1.7c0.5,0.4,1.3,0.4,1.8,0.1l9-4.7l9,4.7c0.3,0.1,0.5,0.2,0.8,0.2
		c0.4,0,0.7-0.1,1-0.3c0.5-0.4,0.8-1.1,0.7-1.7l-1.7-10.5l7.3-7.1c0.5-0.5,0.7-1.2,0.4-1.8c-0.2-0.6-0.8-1.1-1.4-1.2l-10-1.5L46.5,1
		c-0.3-0.6-0.9-1-1.6-1c-0.7,0-1.3,0.4-1.6,1l-4.5,9.7l-10,1.5c-0.7,0.1-1.2,0.6-1.4,1.2c-0.2,0.6,0,1.3,0.4,1.8L35.1,22.3z
		 M40.3,14.1c0.6-0.1,1.1-0.5,1.3-1l3.3-7.1l3.3,7.1c0.2,0.5,0.8,0.9,1.3,1l7.4,1.1l-5.4,5.2c-0.4,0.4-0.6,1-0.5,1.5l1.3,8l-6.7-3.5
		c-0.5-0.3-1.1-0.3-1.6,0l-6.7,3.5l1.3-8c0.1-0.6-0.1-1.1-0.5-1.5l-5.4-5.2L40.3,14.1z"/>
	<linearGradient id="SVGID_7_" gradientUnits="userSpaceOnUse" x1="43.243" y1="80.6122" x2="53.7883" y2="80.755">
		<stop  offset="0" style="stop-color:#0EB170"/>
		<stop  offset="1" style="stop-color:#05E6A1"/>
	</linearGradient>
	<path class="st6" d="M43.2,80.7c0,1,0.8,1.8,1.8,1.8h7c1,0,1.8-0.8,1.8-1.8S53,78.9,52,78.9h-7C44,78.9,43.2,79.7,43.2,80.7z"/>
</g>
</svg>
