<?xml version="1.0" encoding="utf-8"?>
<!-- Generator: Adobe Illustrator 23.0.2, SVG Export Plug-In . SVG Version: 6.00 Build 0)  -->
<svg version="1.1" id="Capa_1" xmlns="http://www.w3.org/2000/svg" xmlns:xlink="http://www.w3.org/1999/xlink" x="0px" y="0px"
	 viewBox="0 0 90 90" style="enable-background:new 0 0 90 90;" xml:space="preserve">
<style type="text/css">
	.st0{fill:url(#SVGID_1_);}
	.st1{fill:url(#SVGID_2_);}
	.st2{fill:url(#SVGID_3_);}
	.st3{fill:url(#SVGID_4_);}
	.st4{fill:url(#SVGID_5_);}
</style>
<g>
	<linearGradient id="SVGID_1_" gradientUnits="userSpaceOnUse" x1="-0.6754" y1="43.829" x2="90.2035" y2="45.0595">
		<stop  offset="0" style="stop-color:#0EB170"/>
		<stop  offset="1" style="stop-color:#05E6A1"/>
	</linearGradient>
	<path class="st0" d="M88.2,43.2h-4.9c-1,0-1.8,0.8-1.8,1.8c0,1,0.8,1.8,1.8,1.8h4.9c1,0,1.8-0.8,1.8-1.8C90,44,89.2,43.2,88.2,43.2
		z"/>
	<linearGradient id="SVGID_2_" gradientUnits="userSpaceOnUse" x1="-0.5492" y1="34.5101" x2="90.3297" y2="35.7406">
		<stop  offset="0" style="stop-color:#0EB170"/>
		<stop  offset="1" style="stop-color:#05E6A1"/>
	</linearGradient>
	<path class="st1" d="M83.3,38.4c0.3,0,0.6-0.1,0.9-0.2l3.2-1.9c0.8-0.5,1.1-1.6,0.6-2.4c-0.5-0.8-1.6-1.1-2.4-0.6l-3.2,1.9
		c-0.8,0.5-1.1,1.6-0.6,2.4C82.1,38,82.7,38.4,83.3,38.4z"/>
	<linearGradient id="SVGID_3_" gradientUnits="userSpaceOnUse" x1="-0.8019" y1="53.1709" x2="90.077" y2="54.4014">
		<stop  offset="0" style="stop-color:#0EB170"/>
		<stop  offset="1" style="stop-color:#05E6A1"/>
	</linearGradient>
	<path class="st2" d="M87.4,53.7l-3.2-1.9c-0.8-0.5-1.9-0.2-2.4,0.6c-0.5,0.8-0.2,1.9,0.6,2.4l3.2,1.9c0.3,0.2,0.6,0.2,0.9,0.2
		c0.6,0,1.2-0.3,1.5-0.9C88.5,55.3,88.3,54.2,87.4,53.7z"/>
	<linearGradient id="SVGID_4_" gradientUnits="userSpaceOnUse" x1="-0.6787" y1="44.0776" x2="90.2002" y2="45.3081">
		<stop  offset="0" style="stop-color:#0EB170"/>
		<stop  offset="1" style="stop-color:#05E6A1"/>
	</linearGradient>
	<path class="st3" d="M67.4,9.5c-0.6,0-1.2,0.1-1.7,0.4L1.1,37C0.4,37.3,0,38,0,38.7v12.7c0,0.7,0.4,1.3,1.1,1.6l9.5,4c0,0,0,0,0,0
		l4.5,1.9v11c0,2.8,2.2,5,5,5h16c2.8,0,5-2.2,5-5v-0.1l24.6,10.3c0.5,0.3,1.1,0.4,1.7,0.4c3.1,0,5.4-3.7,7.2-11.2
		c1.5-6.5,2.3-15.1,2.3-24.3c0-9.1-0.8-17.8-2.3-24.3C72.9,13.2,70.5,9.5,67.4,9.5z M37.6,69.9L37.6,69.9c0,0.8-0.7,1.5-1.5,1.5h-16
		c-0.8,0-1.5-0.7-1.5-1.5v-9.6l19,8V69.9z M13,54.1V45c0-1-0.8-1.8-1.8-1.8c-1,0-1.8,0.8-1.8,1.8v7.7l-6-2.5V39.8l58.3-24.5
		c-0.6,1.5-1.1,3.3-1.6,5.4c-0.1,0.2-0.1,0.5-0.2,0.7L40.1,29c-0.9,0.3-1.4,1.4-1,2.3c0.3,0.7,0.9,1.1,1.6,1.1c0.2,0,0.4,0,0.6-0.1
		l17.9-6.8c-0.9,5.7-1.4,12.4-1.4,19.5c0,9.1,0.8,17.8,2.3,24.3c0.5,2.1,1,3.9,1.6,5.4L13,54.1z M61.6,38.5c3.1,0.5,5.5,3.2,5.5,6.5
		c0,3.3-2.4,6-5.5,6.5c-0.1-2.1-0.1-4.3-0.1-6.5C61.4,42.8,61.5,40.6,61.6,38.5z M71.2,68.5c-1.6,7-3.4,8.5-3.8,8.5c0,0,0,0-0.1,0
		c0,0-0.1,0-0.1,0l0,0c-0.6-0.4-2.2-2.3-3.6-8.5c-0.9-3.8-1.5-8.4-1.9-13.4c5-0.6,8.8-4.9,8.8-10c0-5.1-3.8-9.4-8.8-10
		c0.4-5,1-9.6,1.9-13.5c1.4-6.2,3-8.1,3.6-8.5l0.2-0.1c0,0,0,0,0,0c0.4,0,2.2,1.5,3.8,8.5c1.4,6.2,2.2,14.6,2.2,23.5
		S72.6,62.2,71.2,68.5z"/>
	<linearGradient id="SVGID_5_" gradientUnits="userSpaceOnUse" x1="-0.5277" y1="32.9192" x2="90.3512" y2="34.1496">
		<stop  offset="0" style="stop-color:#0EB170"/>
		<stop  offset="1" style="stop-color:#05E6A1"/>
	</linearGradient>
	<path class="st4" d="M32.8,31.7L32.8,31.7c-0.9,0.4-1.4,1.4-1.1,2.3c0.3,0.7,0.9,1.1,1.6,1.1c0.2,0,0.4,0,0.6-0.1l0,0
		c0.9-0.3,1.4-1.4,1-2.3C34.7,31.8,33.7,31.4,32.8,31.7z"/>
</g>
</svg>
