<?xml version="1.0" encoding="utf-8"?>
<!-- Generator: Adobe Illustrator 23.0.2, SVG Export Plug-In . SVG Version: 6.00 Build 0)  -->
<svg version="1.1" id="Camada_1" xmlns="http://www.w3.org/2000/svg" xmlns:xlink="http://www.w3.org/1999/xlink" x="0px" y="0px"
	 viewBox="0 0 90 90" style="enable-background:new 0 0 90 90;" xml:space="preserve">
<style type="text/css">
	.st0{fill:url(#SVGID_1_);}
	.st1{fill:url(#SVGID_2_);}
	.st2{fill:url(#SVGID_3_);}
	.st3{fill:url(#SVGID_4_);}
	.st4{fill:url(#SVGID_5_);}
	.st5{fill:url(#SVGID_6_);}
</style>
<g>
	<linearGradient id="SVGID_1_" gradientUnits="userSpaceOnUse" x1="3.4667" y1="0.516" x2="91.1307" y2="86.9768">
		<stop  offset="0" style="stop-color:#0EB170"/>
		<stop  offset="1" style="stop-color:#05E6A1"/>
	</linearGradient>
	<path class="st0" d="M54.3,35.5c-8.3,0-15.1,6.8-15.1,15.1s6.8,15.1,15.1,15.1S69.4,59,69.4,50.6S62.6,35.5,54.3,35.5z M54.3,62.3
		c-6.4,0-11.7-5.2-11.7-11.7s5.2-11.7,11.7-11.7S66,44.2,66,50.6S60.7,62.3,54.3,62.3z"/>
	<linearGradient id="SVGID_2_" gradientUnits="userSpaceOnUse" x1="7.0606" y1="-3.1279" x2="94.7246" y2="83.3329">
		<stop  offset="0" style="stop-color:#0EB170"/>
		<stop  offset="1" style="stop-color:#05E6A1"/>
	</linearGradient>
	<path class="st1" d="M54.3,42.9c-0.9,0-1.7,0.8-1.7,1.7s0.8,1.7,1.7,1.7c2.4,0,4.3,1.9,4.3,4.3c0,0.9,0.8,1.7,1.7,1.7
		s1.7-0.8,1.7-1.7C62,46.4,58.5,42.9,54.3,42.9z"/>
	<linearGradient id="SVGID_3_" gradientUnits="userSpaceOnUse" x1="9.381547e-02" y1="3.9358" x2="87.7579" y2="90.3966">
		<stop  offset="0" style="stop-color:#0EB170"/>
		<stop  offset="1" style="stop-color:#05E6A1"/>
	</linearGradient>
	<path class="st2" d="M11.6,19.6c-0.4-0.8-1.5-1.2-2.3-0.7c-0.8,0.4-1.2,1.5-0.7,2.3l4.6,8.9c0.3,0.6,0.9,0.9,1.6,0.9
		c0.7,0,1.2-0.4,1.5-1l2.8-5.8l3,5.9c0.3,0.6,0.9,0.9,1.5,0.9h0c0.7,0,1.2-0.4,1.5-1l4.3-8.9c0.4-0.9,0.1-1.9-0.8-2.3
		c-0.9-0.4-1.9-0.1-2.3,0.8l-2.8,5.8l-3-5.9c-0.3-0.6-0.9-0.9-1.6-0.9c-0.7,0-1.2,0.4-1.5,1l-2.8,5.8L11.6,19.6z"/>
	<linearGradient id="SVGID_4_" gradientUnits="userSpaceOnUse" x1="9.0107" y1="-5.1051" x2="96.6747" y2="81.3557">
		<stop  offset="0" style="stop-color:#0EB170"/>
		<stop  offset="1" style="stop-color:#05E6A1"/>
	</linearGradient>
	<path class="st3" d="M22.7,10.1c0.5,0,0.9-0.2,1.2-0.5c0.3-0.3,0.5-0.8,0.5-1.2s-0.2-0.9-0.5-1.2c-0.3-0.3-0.8-0.5-1.2-0.5
		c-0.5,0-0.9,0.2-1.2,0.5c-0.3,0.3-0.5,0.8-0.5,1.2s0.2,0.9,0.5,1.2C21.8,9.9,22.2,10.1,22.7,10.1z"/>
	<linearGradient id="SVGID_5_" gradientUnits="userSpaceOnUse" x1="11.7799" y1="-7.9129" x2="99.444" y2="78.5479">
		<stop  offset="0" style="stop-color:#0EB170"/>
		<stop  offset="1" style="stop-color:#05E6A1"/>
	</linearGradient>
	<path class="st4" d="M89,36.2V13.5c0-3.8-3.1-6.9-6.9-6.9H29.9c-0.9,0-1.7,0.8-1.7,1.7s0.8,1.7,1.7,1.7h52.3c1.9,0,3.4,1.5,3.4,3.4
		v22.7c0,1.9-1.5,3.4-3.4,3.4h-8.3c0,0-0.1,0-0.1,0c-2.7-4.7-6.9-8.3-12.1-10.1l2.5-5.3l3,5.9c0.3,0.6,0.9,0.9,1.5,0.9h0
		c0.7,0,1.2-0.4,1.5-1l4.3-8.9c0.4-0.9,0.1-1.9-0.8-2.3c-0.9-0.4-1.9-0.1-2.3,0.8l-2.8,5.8l-3-5.9c-0.3-0.6-0.9-0.9-1.6-0.9
		c-0.7,0-1.2,0.4-1.5,1l-2.8,5.8l-3-5.9c-0.4-0.8-1.5-1.2-2.3-0.7c-0.8,0.4-1.2,1.5-0.7,2.3l3.8,7.3c-1-0.2-2.1-0.2-3.2-0.2
		c-2.1,0-4.2,0.3-6.1,0.8l3.8-8c0.4-0.9,0.1-1.9-0.8-2.3c-0.9-0.4-1.9-0.1-2.3,0.8l-2.8,5.8l-3-5.9c-0.3-0.6-0.9-0.9-1.6-0.9
		c-0.7,0-1.2,0.4-1.5,1l-2.8,5.8l-3-5.9c-0.4-0.8-1.5-1.2-2.3-0.7c-0.8,0.4-1.2,1.5-0.7,2.3l4.6,8.9c0.3,0.6,0.9,0.9,1.6,0.9
		c0.7,0,1.2-0.4,1.5-1l2.8-5.8l3,5.9c0.1,0.1,0.1,0.2,0.2,0.3c-4.2,2-7.7,5.2-10,9.2h-27c-1.9,0-3.4-1.5-3.4-3.4V13.5
		c0-1.9,1.5-3.4,3.4-3.4h7c0.9,0,1.7-0.8,1.7-1.7s-0.8-1.7-1.7-1.7h-7C4.1,6.6,1,9.7,1,13.5v22.7c0,3.8,3.1,6.9,6.9,6.9h25.4
		c-0.9,2.4-1.3,4.9-1.3,7.6C31.9,63,42,73,54.3,73c4,0,7.8-1.1,11.1-3l13.6,13.6c1.1,1.1,2.6,1.7,4.1,1.7c1.5,0,3-0.6,4.1-1.7
		c2.3-2.3,2.3-6,0-8.2L81.9,70c-0.7-0.7-1.8-0.7-2.4,0c-0.7,0.7-0.7,1.8,0,2.4l5.4,5.4c0.9,0.9,0.9,2.4,0,3.4
		c-0.9,0.9-2.4,0.9-3.4,0L68.3,68c5.1-4.1,8.3-10.4,8.3-17.4c0-2.7-0.5-5.2-1.3-7.6h6.8C85.9,43.1,89,40,89,36.2z M54.3,69.5
		c-10.4,0-18.9-8.5-18.9-18.9s8.5-18.9,18.9-18.9s18.9,8.5,18.9,18.9S64.7,69.5,54.3,69.5z"/>
	<linearGradient id="SVGID_6_" gradientUnits="userSpaceOnUse" x1="6.2183" y1="-2.2739" x2="93.8824" y2="84.1869">
		<stop  offset="0" style="stop-color:#0EB170"/>
		<stop  offset="1" style="stop-color:#05E6A1"/>
	</linearGradient>
	<path class="st5" d="M75.4,66c-0.3,0.3-0.5,0.8-0.5,1.2c0,0.5,0.2,0.9,0.5,1.2c0.3,0.3,0.8,0.5,1.2,0.5s0.9-0.2,1.2-0.5
		c0.3-0.3,0.5-0.8,0.5-1.2c0-0.5-0.2-0.9-0.5-1.2c-0.3-0.3-0.8-0.5-1.2-0.5C76.2,65.5,75.7,65.6,75.4,66z"/>
</g>
</svg>
